<svg xmlns="http://www.w3.org/2000/svg" viewBox="0 0 24 24">
  <defs>
    <linearGradient id="leafGradient" x1="0%" y1="0%" x2="100%" y2="100%">
      <stop offset="0%" style="stop-color:#37654b;stop-opacity:1" />
      <stop offset="100%" style="stop-color:#507e62;stop-opacity:1" />
    </linearGradient>
  </defs>
  <path fill="url(#leafGradient)" d="M12,2C12,2 12,6.5 12,12C12,17.5 12,22 12,22C12,22 16.5,22 22,22C22,16.5 22,12 22,12C22,6.5 22,2 22,2C22,2 17.5,2 12,2Z" opacity="0.1" />
  <path fill="url(#leafGradient)" d="M17.5,12c0-3.31-2.69-6-6-6s-6,2.69-6,6c0,1.66,0.67,3.16,1.76,4.24l-0.01,0.01l2.84,2.84c0.78,0.78,2.05,0.78,2.83,0l2.84-2.84l-0.01-0.01C16.83,15.16,17.5,13.66,17.5,12z M11.5,15c-1.66,0-3-1.34-3-3s1.34-3,3-3s3,1.34,3,3S13.16,15,11.5,15z" />
  <path fill="url(#leafGradient)" d="M12,2C8.13,2 5,5.13 5,9c0,1.74,0.64,3.33,1.69,4.56L12,19l5.31-5.44C18.36,12.33,19,10.74,19,9C19,5.13,15.87,2,12,2z M12,12.5c-1.93,0-3.5-1.57-3.5-3.5s1.57-3.5,3.5-3.5s3.5,1.57,3.5,3.5S13.93,12.5,12,12.5z" />
</svg>